<?xml version="1.0" standalone="no"?>
<!DOCTYPE svg PUBLIC "-//W3C//DTD SVG 20010904//EN"
 "http://www.w3.org/TR/2001/REC-SVG-20010904/DTD/svg10.dtd">
<svg version="1.0" xmlns="http://www.w3.org/2000/svg"
 width="1080.000000pt" height="1080.000000pt" viewBox="0 0 1080.000000 1080.000000"
 preserveAspectRatio="xMidYMid meet">

<g transform="translate(0.000000,1080.000000) scale(0.100000,-0.100000)"
fill="#000732" stroke="none">
<path d="M5000 10574 c-1117 -97 -2148 -535 -3005 -1277 -268 -232 -597 -596
-812 -897 -515 -722 -824 -1521 -940 -2425 -26 -205 -26 -1015 0 -1220 48
-373 137 -762 246 -1080 263 -757 692 -1445 1251 -2004 422 -421 878 -745
1415 -1007 462 -224 868 -357 1370 -447 577 -104 1269 -103 1840 3 701 130
1347 388 1935 775 608 400 1105 897 1505 1505 387 588 645 1234 775 1935 106
571 107 1263 3 1840 -90 502 -223 908 -447 1370 -407 837 -1004 1525 -1776
2047 -619 419 -1254 677 -2010 818 -293 55 -388 62 -860 65 -245 1 -465 1
-490 -1z m785 -414 c1040 -72 2040 -492 2825 -1186 494 -437 880 -945 1159
-1526 439 -911 579 -1921 405 -2917 -133 -760 -475 -1527 -953 -2131 -282
-357 -664 -720 -1032 -978 -554 -390 -1253 -680 -1919 -796 -880 -153 -1787
-60 -2605 266 -864 345 -1581 908 -2147 1685 -188 257 -421 678 -540 978 -238
596 -348 1172 -348 1810 0 582 85 1075 283 1635 156 442 408 900 712 1295 568
737 1357 1310 2210 1604 656 227 1265 308 1950 261z"/>
<path d="M5170 9381 l0 -638 -322 -6 c-332 -6 -420 -15 -593 -58 -266 -67
-554 -221 -763 -409 -310 -279 -515 -651 -588 -1070 -35 -200 -19 -514 37
-720 170 -629 672 -1130 1285 -1284 221 -55 240 -56 1065 -56 781 -1 944 -6
1084 -35 369 -77 691 -314 884 -650 194 -339 224 -764 79 -1132 -145 -367
-439 -646 -817 -772 -202 -68 -118 -64 -1594 -68 l-1337 -4 2 -227 3 -227 788
-3 787 -2 0 -630 0 -630 230 0 230 0 0 629 0 628 333 6 c342 6 412 13 587 57
498 125 934 479 1169 947 156 313 221 718 167 1048 -66 412 -237 749 -517
1021 -285 275 -560 419 -959 501 -63 13 -224 17 -980 23 -994 8 -975 7 -1165
72 -507 172 -858 618 -904 1148 -30 360 85 707 329 988 228 261 548 418 905
442 78 5 697 10 1398 10 l1257 0 -2 228 -3 227 -807 3 -808 2 0 640 0 640
-230 0 -230 0 0 -639z"/>
<path d="M5320 7787 c-19 -12 -42 -36 -52 -52 -9 -17 -164 -376 -343 -799
-365 -862 -357 -836 -291 -902 30 -30 40 -34 89 -34 40 0 63 6 88 23 38 25 42
33 131 240 l63 147 390 -2 389 -3 71 -160 c88 -200 89 -202 128 -225 66 -41
161 -17 200 50 38 64 31 85 -176 570 -106 250 -256 599 -331 776 -92 216 -146
330 -164 347 -54 52 -136 62 -192 24z m206 -781 c68 -153 124 -280 124 -282 0
-2 -115 -4 -256 -4 -252 0 -255 0 -249 20 4 11 37 89 74 173 37 83 89 203 116
265 27 62 53 111 57 110 5 -2 65 -129 134 -282z"/>
<path d="M4940 4728 c-33 -17 -51 -35 -67 -68 l-23 -44 0 -776 c0 -734 1 -777
19 -816 12 -25 33 -50 57 -65 l39 -24 480 0 c527 0 515 -1 564 61 48 61 31
160 -37 212 l-35 27 -376 3 c-281 2 -377 6 -383 15 -12 18 -10 415 2 438 10
18 24 19 323 19 283 0 315 2 346 18 49 26 73 75 68 138 -4 61 -28 97 -83 124
-38 19 -60 20 -346 20 -270 0 -307 2 -312 16 -9 23 -7 387 2 401 6 9 103 13
377 15 425 3 427 4 466 84 39 82 8 167 -75 205 -38 17 -75 19 -501 19 -458 0
-461 0 -505 -22z"/>
</g>
</svg>
